<?xml version="1.0" standalone="no"?>
<!DOCTYPE svg PUBLIC "-//W3C//DTD SVG 20010904//EN"
 "http://www.w3.org/TR/2001/REC-SVG-20010904/DTD/svg10.dtd">
<svg version="1.0" xmlns="http://www.w3.org/2000/svg"
 width="512.000000pt" height="512.000000pt" viewBox="0 0 512.000000 512.000000"
 preserveAspectRatio="xMidYMid meet">

<g transform="translate(0.000000,512.000000) scale(0.100000,-0.100000)"
fill="white" stroke="none">
<path d="M1605 5110 c-412 -38 -792 -216 -1086 -509 -521 -522 -661 -1302
-354 -1976 227 -498 700 -874 1238 -985 440 -90 875 -14 1276 223 92 54 112
62 167 65 106 7 120 -2 321 -201 l183 -181 -69 -71 c-75 -77 -89 -112 -76
-183 5 -33 78 -109 628 -659 675 -675 641 -645 734 -628 33 5 72 41 285 253
212 213 248 253 258 290 25 95 50 65 -623 739 -545 544 -617 613 -654 623 -69
18 -115 -1 -193 -76 l-66 -64 -181 183 c-199 201 -208 215 -201 321 3 54 11
74 61 159 191 318 277 641 264 987 -9 248 -60 462 -161 672 -98 208 -200 353
-355 509 -233 232 -499 382 -821 464 -170 43 -402 61 -575 45z m435 -340 c367
-74 675 -274 893 -577 251 -351 331 -813 211 -1231 -117 -411 -590 -878 -1004
-991 -664 -182 -1362 133 -1674 756 -100 200 -155 470 -143 699 38 707 567
1275 1269 1364 113 14 328 4 448 -20z"/>
</g>
</svg>
