<?xml version="1.0" standalone="no"?>
<!DOCTYPE svg PUBLIC "-//W3C//DTD SVG 20010904//EN"
 "http://www.w3.org/TR/2001/REC-SVG-20010904/DTD/svg10.dtd">
<svg version="1.0" xmlns="http://www.w3.org/2000/svg"
 width="512.000000pt" height="512.000000pt" viewBox="0 0 512.000000 512.000000"
 preserveAspectRatio="xMidYMid meet">

<g transform="translate(0.000000,512.000000) scale(0.100000,-0.100000)"
fill="white" stroke="none">
<path d="M380 5100 c-11 -11 -22 -30 -24 -42 -5 -24 -37 -1621 -36 -1819 0
-103 2 -118 20 -134 27 -25 76 -23 103 3 26 27 23 -42 43 967 9 451 17 821 18
822 1 1 32 -18 69 -42 36 -25 78 -45 92 -45 15 0 69 29 131 71 l106 71 107
-71 c62 -41 118 -71 132 -71 15 0 66 28 127 70 56 39 104 70 107 70 4 0 53
-31 109 -70 60 -42 112 -70 127 -70 15 0 69 29 132 72 l107 71 104 -71 c64
-44 114 -72 130 -72 16 0 68 28 132 71 l106 71 107 -71 c62 -41 118 -71 132
-71 15 0 66 28 127 70 56 39 104 70 107 70 4 0 53 -31 109 -70 60 -42 112 -70
127 -70 15 0 69 29 132 72 l107 71 104 -71 c64 -44 114 -72 130 -72 15 0 57
20 94 45 l67 45 5 -1681 c5 -1649 5 -1681 24 -1695 30 -22 74 -17 101 11 l25
24 0 1671 0 1670 67 -45 c39 -26 79 -45 95 -45 15 0 54 19 91 44 l65 45 6
-122 c3 -67 12 -720 21 -1452 9 -731 20 -1656 26 -2054 6 -398 7 -727 2 -732
-4 -4 -89 -73 -188 -152 l-180 -146 -5 516 -5 515 -24 19 c-30 25 -62 24 -95
-2 l-26 -20 0 -560 0 -559 -1630 0 -1630 0 0 143 c0 78 11 680 25 1337 24
1163 24 1196 6 1220 -29 40 -100 40 -121 -1 -14 -25 -72 -2773 -59 -2805 4
-13 17 -28 28 -33 28 -15 4514 -15 4542 0 11 5 24 20 28 32 9 24 -64 3775 -74
3815 -3 14 -19 29 -40 38 -31 13 -39 13 -65 -1 -16 -8 -32 -25 -35 -38 -5 -19
19 -1339 56 -3059 6 -289 10 -531 7 -538 -4 -12 -347 273 -353 293 -2 7 -8
404 -14 882 -6 479 -18 1449 -27 2157 -10 709 -15 1291 -11 1294 3 3 33 -13
66 -35 33 -23 72 -41 86 -41 14 0 56 20 93 45 l67 45 6 -197 c4 -109 7 -275 8
-368 1 -182 7 -207 55 -224 28 -11 74 6 87 32 17 31 1 903 -17 938 -30 58 -63
53 -188 -31 -57 -38 -107 -70 -111 -70 -4 0 -54 32 -111 70 -58 39 -115 70
-128 70 -12 0 -68 -31 -124 -70 -56 -38 -105 -70 -109 -70 -4 0 -55 32 -113
70 -58 38 -115 70 -127 70 -12 0 -66 -30 -120 -66 -54 -37 -103 -68 -109 -71
-7 -2 -60 28 -119 66 -59 39 -117 71 -129 71 -12 0 -68 -31 -123 -70 -56 -38
-105 -70 -110 -70 -5 0 -55 32 -112 70 -57 39 -114 70 -125 70 -12 0 -68 -32
-126 -70 -58 -38 -109 -70 -113 -70 -5 0 -54 32 -110 70 -55 39 -111 70 -124
70 -12 0 -66 -30 -120 -66 -54 -37 -103 -68 -109 -71 -7 -2 -60 28 -119 66
-59 39 -117 71 -129 71 -12 0 -68 -31 -123 -70 -56 -38 -105 -70 -110 -70 -5
0 -55 32 -112 70 -57 39 -114 70 -125 70 -12 0 -68 -32 -126 -70 -58 -38 -109
-70 -113 -70 -5 0 -54 32 -110 70 -55 39 -111 70 -124 70 -12 0 -66 -30 -120
-66 -54 -37 -103 -68 -109 -71 -7 -2 -60 28 -119 66 -59 39 -118 71 -131 71
-13 0 -33 -9 -44 -20z m4063 -4830 l137 -115 -155 -3 c-85 -1 -224 -1 -309 0
l-155 3 157 126 c130 106 159 125 172 115 9 -6 78 -63 153 -126z"/>
<path d="M656 979 l-26 -20 0 -299 0 -299 26 -20 c26 -21 36 -21 490 -21 l463
0 28 24 28 24 3 269 c4 292 -1 332 -43 351 -19 9 -157 12 -484 12 -449 0 -459
0 -485 -21z m854 -319 l0 -190 -365 0 -365 0 0 190 0 190 365 0 365 0 0 -190z"/>
</g>
</svg>
